<?xml version="1.0" standalone="no"?>
<!DOCTYPE svg PUBLIC "-//W3C//DTD SVG 20010904//EN"
 "http://www.w3.org/TR/2001/REC-SVG-20010904/DTD/svg10.dtd">
<svg version="1.0" xmlns="http://www.w3.org/2000/svg"
 width="500.000000pt" height="500.000000pt" viewBox="0 0 500.000000 500.000000"
 preserveAspectRatio="xMidYMid meet">

<g transform="translate(0.000000,500.000000) scale(0.100000,-0.100000)"
fill="#000000" stroke="none">
<path d="M0 2500 l0 -2500 2500 0 2500 0 0 2500 0 2500 -2500 0 -2500 0 0
-2500z m2630 945 c0 -3 -26 -30 -57 -60 l-58 -54 95 -1 c93 0 96 1 185 45 82
42 195 71 195 51 0 -19 -25 -49 -62 -76 l-40 -29 41 -7 c42 -7 52 -18 26 -28
-8 -3 -15 -1 -15 4 0 6 -20 10 -44 10 -31 0 -74 -14 -157 -54 -63 -29 -135
-62 -162 -72 -46 -19 -185 -145 -142 -130 11 4 34 10 50 13 l30 6 -24 -27
c-14 -14 -21 -29 -18 -33 6 -6 77 20 189 70 82 36 74 -4 -8 -44 -68 -33 -43
-36 36 -4 39 15 73 25 76 22 6 -6 -139 -67 -160 -67 -19 0 -21 31 -4 48 18 18
6 15 -58 -18 -83 -42 -119 -39 -89 7 9 13 13 23 10 23 -13 0 -62 -30 -74 -44
-14 -17 -41 -22 -41 -7 0 4 27 38 60 74 l61 66 -46 -16 c-70 -23 -65 -9 6 17
34 13 74 34 90 47 16 14 33 22 39 18 9 -6 195 68 250 100 24 14 22 14 -39 15
-68 0 -92 -11 -168 -83 -18 -17 -35 -28 -39 -25 -3 3 21 28 54 56 l60 49 -87
8 -86 7 -49 -54 c-27 -29 -114 -127 -193 -217 -223 -255 -313 -376 -298 -401
3 -6 1 -10 -4 -10 -14 0 -14 36 1 63 32 61 165 225 366 455 74 84 132 155 130
158 -6 5 -312 -14 -345 -22 -13 -4 -23 -2 -23 4 0 12 66 20 250 28 l145 7 64
58 c58 54 81 69 81 54z m-2061 -842 c20 -46 38 -83 41 -83 4 0 21 38 39 85 32
84 33 85 67 85 19 0 34 -4 34 -10 0 -11 -130 -312 -139 -323 -6 -5 -106 213
-149 321 -3 10 5 13 34 10 38 -3 39 -4 73 -85z m659 -80 l2 -163 -35 0 -35 0
0 158 c0 87 3 162 7 166 4 4 19 6 33 4 l25 -3 3 -162z m645 153 c94 -40 132
-146 84 -231 -64 -114 -209 -116 -285 -5 -20 29 -23 45 -20 91 5 68 35 114 92
140 49 22 86 24 129 5z m585 -123 l3 -133 74 0 75 0 0 -30 0 -30 -110 0 -110
0 0 158 c0 87 3 162 7 166 4 4 19 6 33 4 l25 -3 3 -132z m792 102 l0 -35 -75
0 -75 0 0 -35 0 -35 71 0 70 0 -3 -27 c-3 -27 -5 -28 -70 -31 l-68 -3 0 -34 0
-35 80 0 80 0 0 -30 0 -30 -115 0 -115 0 0 158 c0 87 3 162 7 165 3 4 53 7
110 7 l103 0 0 -35z m620 0 c0 -33 -2 -35 -35 -35 l-35 0 0 -130 0 -130 -35 0
-35 0 0 129 0 130 -37 3 c-27 2 -39 8 -41 21 -8 43 2 47 113 47 l105 0 0 -35z
m575 -52 c21 -49 53 -123 71 -165 l33 -78 -38 0 c-34 0 -40 4 -50 30 -9 28
-13 30 -64 30 -51 0 -55 -2 -67 -30 -10 -25 -18 -30 -45 -30 l-33 0 72 165
c39 91 74 165 77 165 3 0 23 -39 44 -87z m-2455 -523 c0 -5 -11 -10 -25 -10
-16 0 -25 -6 -25 -15 0 -8 9 -15 20 -15 11 0 20 -4 20 -10 0 -5 -9 -10 -20
-10 -13 0 -20 -7 -20 -20 0 -11 -4 -20 -10 -20 -5 0 -10 25 -10 55 l0 55 35 0
c19 0 35 -4 35 -10z m154 -99 c-4 -3 -9 0 -11 7 -3 6 -15 12 -28 12 -13 0 -25
-6 -28 -12 -2 -7 -7 -10 -11 -6 -4 3 3 30 15 58 l23 53 23 -53 c13 -29 20 -56
17 -59z m141 99 c3 -5 -3 -10 -14 -10 -27 0 -27 -16 0 -30 28 -16 22 -54 -10
-58 -13 -2 -28 2 -35 8 -8 9 -5 11 13 8 31 -4 39 17 12 32 -23 12 -28 45 -8
53 20 9 35 8 42 -3z m131 -40 c17 0 24 6 24 19 0 11 5 23 10 26 6 4 10 -15 10
-49 0 -31 -4 -56 -10 -56 -5 0 -10 9 -10 20 0 15 -7 20 -25 20 -18 0 -25 -5
-25 -20 0 -11 -4 -20 -10 -20 -12 0 -14 93 -2 104 4 4 8 -4 10 -18 3 -20 9
-26 28 -26z m154 -5 c0 -30 -4 -55 -10 -55 -5 0 -10 25 -10 55 0 30 5 55 10
55 6 0 10 -25 10 -55z m170 35 c11 -11 20 -26 20 -33 0 -24 -31 -57 -55 -57
-49 0 -72 55 -38 92 21 24 48 23 73 -2z m183 -14 c3 30 4 24 5 -20 l2 -60 -35
34 -35 34 0 -32 c0 -18 -4 -32 -10 -32 -5 0 -10 26 -10 57 l0 57 39 -38 40
-39 4 39z m152 24 c3 -5 -3 -10 -14 -10 -28 0 -26 -10 6 -36 24 -19 26 -24 14
-38 -15 -18 -61 -22 -61 -5 0 6 6 9 13 6 8 -3 20 -2 27 3 9 6 6 12 -14 25 -39
26 -33 61 11 64 6 1 15 -3 18 -9z"/>
<path d="M2890 3401 c-51 -16 -114 -46 -150 -70 -11 -8 4 -11 55 -11 65 0 73
3 119 38 74 56 65 72 -24 43z"/>
<path d="M2650 3050 c-9 -6 -10 -10 -3 -10 6 0 15 5 18 10 8 12 4 12 -15 0z"/>
<path d="M1772 2615 c-66 -29 -77 -122 -20 -170 95 -80 215 53 131 144 -34 37
-68 45 -111 26z"/>
<path d="M4387 2533 c-2 -10 -8 -26 -12 -35 -6 -15 -2 -18 24 -18 30 0 30 1
19 28 -17 39 -25 46 -31 25z"/>
<path d="M2096 2035 c-3 -8 -1 -15 4 -15 6 0 10 7 10 15 0 8 -2 15 -4 15 -2 0
-6 -7 -10 -15z"/>
<path d="M2674 2056 c-11 -28 1 -51 28 -54 31 -4 48 29 28 53 -16 19 -49 19
-56 1z"/>
</g>
</svg>
